<?xml version="1.0" standalone="no"?>
<!DOCTYPE svg PUBLIC "-//W3C//DTD SVG 20010904//EN"
 "http://www.w3.org/TR/2001/REC-SVG-20010904/DTD/svg10.dtd">
<svg version="1.0" xmlns="http://www.w3.org/2000/svg"
 width="24.000000pt" height="24.000000pt" viewBox="0 0 64.000000 64.000000"
 preserveAspectRatio="xMidYMid meet">

<g transform="translate(0.000000,64.000000) scale(0.100000,-0.100000)"
fill="#2f4f4f" stroke="none">
<path d="M241 589 c-114 -33 -201 -149 -201 -270 0 -115 87 -233 195 -265 136
-39 269 17 332 140 110 216 -92 462 -326 395z m153 -41 c86 -26 166 -136 166
-228 0 -124 -116 -240 -240 -240 -63 0 -114 23 -165 75 -102 101 -102 229 0
330 70 71 145 90 239 63z"/>
<path d="M305 498 c-3 -8 -4 -70 -3 -139 3 -102 6 -124 18 -124 13 0 15 22 15
134 0 99 -3 135 -12 138 -7 3 -15 -2 -18 -9z"/>
<path d="M302 173 c2 -10 10 -18 18 -18 8 0 16 8 18 18 2 12 -3 17 -18 17 -15
0 -20 -5 -18 -17z"/>
</g>
</svg>