<?xml version="1.0" standalone="no"?>
<!DOCTYPE svg PUBLIC "-//W3C//DTD SVG 20010904//EN"
 "http://www.w3.org/TR/2001/REC-SVG-20010904/DTD/svg10.dtd">
<svg version="1.0" xmlns="http://www.w3.org/2000/svg"
 width="24.000000pt" height="24.000000pt" viewBox="0 0 24.000000 24.000000"
 preserveAspectRatio="xMidYMid meet">

<g transform="translate(0.000000,24.000000) scale(0.100000,-0.100000)"
fill="#ffffff" stroke="none">
<path d="M71 206 c-87 -48 -50 -186 49 -186 51 0 100 49 100 99 0 75 -83 124
-149 87z m104 -31 c33 -32 33 -78 0 -110 -13 -14 -29 -25 -35 -25 -16 0 -12
50 5 56 8 4 15 10 15 15 0 5 -7 9 -15 9 -8 0 -15 5 -15 10 0 6 7 13 15 16 23
9 18 26 -7 22 -15 -2 -24 -11 -26 -25 -2 -13 -10 -23 -18 -23 -19 0 -18 -16 1
-24 17 -6 21 -56 5 -56 -23 0 -60 50 -60 80 0 41 39 80 80 80 19 0 40 -9 55
-25z"/>
</g>
</svg>
