<?xml version="1.0" standalone="no"?>
<!DOCTYPE svg PUBLIC "-//W3C//DTD SVG 20010904//EN"
 "http://www.w3.org/TR/2001/REC-SVG-20010904/DTD/svg10.dtd">
<svg version="1.0" xmlns="http://www.w3.org/2000/svg"
 width="32.000000pt" height="32.000000pt" viewBox="0 0 32.000000 32.000000"
 preserveAspectRatio="xMidYMid meet">

<g transform="translate(0.000000,32.000000) scale(0.100000,-0.100000)"
fill="#ffffff" stroke="none">
<path d="M180 284 c-22 -20 -40 -40 -40 -45 0 -18 43 -8 71 16 16 13 36 22 43
19 30 -11 25 -36 -16 -80 -36 -39 -46 -45 -76 -42 -43 4 -52 -15 -19 -37 36
-23 69 -11 126 50 58 61 64 92 26 130 -34 35 -68 32 -115 -11z"/>
<path d="M115 211 c-36 -15 -115 -108 -115 -136 0 -33 42 -75 75 -75 24 0 105
62 105 81 0 19 -45 8 -71 -17 -29 -28 -55 -27 -66 2 -4 10 9 31 38 60 38 40
48 45 76 40 41 -6 53 12 23 36 -24 20 -34 21 -65 9z"/>
</g>
</svg>
