<?xml version="1.0" standalone="no"?>
<!DOCTYPE svg PUBLIC "-//W3C//DTD SVG 20010904//EN"
 "http://www.w3.org/TR/2001/REC-SVG-20010904/DTD/svg10.dtd">
<svg version="1.0" xmlns="http://www.w3.org/2000/svg"
 width="500.000000pt" height="500.000000pt" viewBox="0 0 500.000000 500.000000"
 preserveAspectRatio="xMidYMid meet">

<g transform="translate(0.000000,500.000000) scale(0.100000,-0.100000)"
fill="#000000" stroke="none">
<path d="M2299 4965 c-41 -32 -48 -34 -80 -25 -18 6 -66 10 -105 10 -59 0 -77
-4 -107 -24 -24 -17 -58 -27 -99 -32 -51 -5 -74 -15 -120 -46 -43 -30 -68 -41
-103 -43 -58 -4 -80 -24 -102 -92 -13 -41 -22 -55 -40 -59 -13 -4 -26 -4 -29
-1 -10 10 -81 -21 -131 -57 -38 -27 -51 -43 -52 -63 -1 -16 -3 -62 -5 -105 -3
-64 -8 -82 -30 -110 -18 -25 -29 -56 -37 -110 -13 -86 -4 -114 52 -166 31 -29
31 -30 11 -41 -16 -9 -21 -22 -23 -68 -6 -133 2 -388 17 -528 23 -219 28 -285
20 -285 -4 0 -19 8 -34 17 -24 15 -23 14 6 -14 17 -17 33 -39 33 -50 3 -40 18
66 18 129 1 79 24 205 46 250 8 18 34 57 56 87 56 73 87 160 91 251 2 68 5 76
36 107 24 24 42 33 65 33 24 0 41 9 61 29 16 17 42 31 64 35 49 8 123 77 146
136 30 78 67 105 153 115 13 1 51 -10 83 -26 46 -22 60 -35 69 -61 17 -48 48
-81 116 -118 53 -30 67 -34 130 -32 114 3 155 7 155 15 0 4 -6 7 -12 7 -7 1 5
10 28 21 23 11 47 31 54 44 7 14 18 25 24 25 17 -1 70 -53 115 -114 66 -89
198 -219 216 -213 17 7 30 -30 21 -60 -3 -10 1 -31 9 -47 8 -15 15 -38 15 -50
0 -11 7 -30 15 -40 8 -11 15 -30 15 -42 0 -23 46 -64 72 -64 7 0 24 -16 37
-35 59 -87 83 -241 84 -540 1 -179 -2 -214 -26 -332 -29 -143 -65 -263 -78
-263 -5 0 -9 -9 -9 -20 0 -11 -4 -20 -8 -20 -5 0 -16 -15 -25 -32 -9 -18 -27
-49 -39 -69 -13 -20 -34 -55 -47 -78 -14 -22 -28 -41 -33 -41 -4 0 -8 -7 -8
-16 0 -8 -11 -40 -25 -70 -14 -30 -25 -61 -25 -69 0 -21 -13 -19 -28 5 -7 11
-17 20 -23 20 -6 0 -37 26 -70 58 -32 32 -76 67 -96 78 -21 10 -51 28 -68 39
-16 11 -32 20 -35 20 -5 0 -37 29 -121 107 -31 28 -37 48 -15 48 15 0 60 62
70 96 9 29 -14 51 -64 59 -22 4 -42 11 -46 16 -3 5 -14 9 -25 9 -11 0 -17 4
-14 10 3 6 1 10 -5 10 -6 0 -8 5 -5 10 10 17 -5 11 -38 -14 -74 -55 -216 -84
-262 -53 -40 27 -137 14 -159 -22 -11 -17 14 -63 52 -98 l37 -34 -32 -27 c-86
-71 -110 -89 -160 -120 -30 -17 -58 -32 -63 -32 -15 0 -84 -66 -113 -108 -19
-27 -29 -57 -34 -102 -3 -36 -9 -58 -11 -50 -3 8 -20 35 -39 59 -18 24 -33 48
-33 53 0 4 -20 41 -43 81 -150 248 -166 302 -207 689 -5 53 -11 152 -11 220
-1 68 -4 110 -8 94 l-6 -29 -53 48 c-29 26 -55 45 -58 42 -3 -2 2 -38 10 -78
8 -41 15 -62 15 -47 1 40 11 58 32 58 33 0 50 -52 49 -153 -1 -97 1 -109 18
-172 8 -32 25 -489 22 -620 0 -16 5 -40 12 -52 8 -17 8 -29 0 -48 -12 -26 -7
-55 10 -55 7 0 7 -5 0 -13 -9 -10 -6 -17 9 -30 15 -14 17 -21 9 -37 -7 -12 -7
-21 0 -25 5 -3 10 -19 10 -34 0 -16 8 -39 18 -52 27 -35 60 -108 70 -154 5
-24 14 -39 21 -37 7 1 11 -3 9 -9 -2 -7 -44 -23 -94 -35 -87 -22 -307 -99
-355 -124 -13 -7 -49 -36 -79 -63 -53 -49 -100 -74 -204 -112 -27 -10 -65 -32
-85 -50 -49 -43 -66 -51 -152 -71 -85 -19 -163 -56 -266 -126 -95 -63 -133
-103 -181 -185 -87 -150 -112 -209 -112 -268 0 -40 3 -54 12 -49 8 5 8 3 2 -7
-10 -16 -13 -79 -3 -79 6 0 4 -45 -6 -130 -3 -34 -2 -39 4 -20 8 23 9 22 10
-13 1 -23 -3 -36 -9 -32 -6 4 -10 -8 -10 -30 0 -22 4 -34 10 -30 6 4 10 -7 9
-27 -1 -31 -1 -32 -9 -8 -10 31 -12 4 -4 -39 l7 -31 736 0 c681 1 733 2 691
17 -65 22 -93 46 -139 114 -55 83 -59 111 -23 181 16 31 27 60 23 63 -3 4 -6
10 -6 13 0 4 -17 24 -39 44 -37 35 -38 38 -32 82 4 25 23 75 43 110 58 104
113 153 269 240 76 43 156 92 177 108 21 16 43 28 50 25 23 -9 41 -95 47 -222
1 -26 3 -27 10 -10 l9 20 1 -20 c3 -40 16 14 14 57 -3 56 17 43 36 -23 10 -35
21 -54 31 -54 30 0 69 -35 69 -60 0 -14 4 -25 10 -25 13 0 34 -43 66 -132 29
-80 87 -148 127 -148 32 0 67 -11 67 -20 0 -5 -10 -10 -22 -12 -18 -3 -8 -11
44 -37 44 -21 65 -37 62 -46 -3 -7 3 -18 13 -23 27 -14 83 -23 83 -13 0 4 18
15 41 24 22 9 38 21 35 26 -4 6 3 15 14 21 11 6 20 9 20 6 0 -3 23 5 50 18 51
24 62 38 125 164 12 24 26 43 31 41 5 -1 14 8 20 20 6 12 15 23 20 24 5 1 8 5
6 10 -1 4 9 12 23 17 14 5 28 17 31 25 5 12 9 13 20 4 8 -6 14 -8 14 -3 0 5 5
2 10 -6 7 -11 10 -8 10 16 0 17 7 37 15 44 8 7 12 17 8 23 -4 6 0 8 9 4 19 -7
38 11 38 35 0 10 9 23 20 30 13 8 20 24 20 44 0 17 7 45 16 63 9 17 17 48 19
68 1 21 8 39 14 41 6 2 11 15 11 28 0 14 4 33 9 43 5 9 11 32 14 51 3 26 8 34
20 32 10 -2 17 2 17 8 0 5 -7 10 -15 10 -8 0 -15 4 -15 10 0 5 7 7 15 4 10 -4
15 0 15 14 0 12 4 23 9 27 5 3 7 21 4 40 -3 18 -2 60 2 92 l7 57 14 -33 c14
-34 44 -266 44 -344 0 -31 3 -38 10 -27 5 8 10 27 10 42 0 15 5 30 10 33 6 3
10 20 10 36 0 17 5 39 10 50 8 13 7 26 -1 41 -11 21 -10 21 24 -5 115 -88 346
-205 512 -261 28 -9 69 -32 93 -50 l43 -35 -52 -58 c-101 -113 -196 -207 -314
-311 -66 -59 -133 -118 -150 -134 -97 -88 -280 -214 -400 -273 -71 -35 -141
-66 -155 -68 -14 -2 177 -5 423 -6 293 -1 455 3 468 9 10 6 19 7 19 3 0 -5 12
-9 28 -10 15 0 19 1 10 4 -11 3 -15 10 -11 20 4 11 2 14 -5 9 -34 -21 6 33
138 184 36 41 72 82 81 90 14 14 93 110 166 204 18 22 51 88 73 146 23 58 52
131 66 162 13 31 32 87 41 125 9 37 23 74 30 81 24 24 34 50 21 54 -6 2 12 14
41 26 50 21 53 21 94 4 23 -9 42 -24 42 -32 0 -8 6 -14 13 -12 8 1 11 -2 7 -8
-4 -6 -13 -9 -19 -7 -7 3 -13 -1 -13 -9 0 -8 6 -14 14 -14 7 0 13 -4 13 -10 0
-5 -4 -10 -9 -10 -17 0 -21 -31 -7 -53 7 -12 16 -34 20 -49 4 -17 13 -28 23
-28 9 0 14 -3 10 -6 -13 -14 -46 9 -52 36 -7 33 -20 46 -30 30 -3 -5 -1 -10 4
-10 21 0 11 -29 -11 -32 -15 -2 -24 -11 -26 -25 -4 -25 -32 -39 -44 -21 -5 8
-8 -1 -8 -23 0 -22 -6 -39 -14 -42 -15 -6 -25 -47 -31 -119 -4 -44 -22 -88
-36 -88 -4 0 -5 10 -3 23 3 16 1 14 -10 -8 -9 -16 -15 -38 -16 -47 0 -10 -4
-18 -10 -18 -5 0 -10 -8 -10 -18 0 -11 -9 -27 -20 -37 -11 -10 -20 -26 -20
-35 0 -10 -8 -28 -19 -41 -10 -13 -16 -30 -14 -36 3 -7 -2 -13 -10 -13 -8 0
-18 -7 -21 -16 -4 -10 -12 -14 -22 -10 -11 4 -18 -1 -21 -14 -3 -12 -14 -20
-27 -20 -29 0 -48 -14 -44 -32 5 -21 -99 -110 -121 -103 -13 4 -24 -7 -45 -45
-23 -42 -32 -50 -55 -50 -16 0 -34 7 -41 15 -15 18 -30 20 -30 4 0 -6 9 -13
20 -16 11 -3 20 -9 20 -14 0 -5 8 -9 17 -9 16 0 16 -1 0 -17 -13 -13 -19 -15
-29 -5 -16 16 -28 15 -28 -3 0 -13 23 -15 149 -15 134 0 150 2 154 17 4 17 5
17 6 1 1 -17 18 -18 200 -18 l199 0 6 25 c4 14 11 23 15 20 5 -3 12 1 14 7 3
7 6 -2 6 -20 1 -30 3 -32 16 -18 18 17 20 56 4 56 -8 0 -8 5 1 15 15 19 31 10
23 -13 -4 -13 -3 -14 6 -6 17 15 16 62 -2 90 -4 7 0 11 11 10 13 -1 17 6 15
26 -1 16 2 28 7 28 4 0 11 11 14 25 4 14 14 25 24 25 16 1 16 1 0 14 -23 17
-23 26 0 26 25 0 43 42 36 80 -4 19 -2 30 5 30 6 0 11 -9 11 -19 0 -11 5 -23
10 -26 6 -3 10 -2 10 4 0 6 6 8 14 5 8 -3 17 0 22 7 4 8 3 10 -4 5 -7 -4 -12
-1 -12 8 0 8 -9 17 -19 21 -11 3 -21 16 -23 28 -4 19 -6 18 -19 -13 -9 -19
-23 -41 -32 -49 -10 -7 -17 -24 -17 -37 0 -13 -4 -24 -9 -24 -19 0 -71 -58
-65 -73 3 -10 -2 -18 -15 -22 -13 -4 -21 -15 -21 -30 0 -12 -6 -22 -12 -22 -7
1 -30 -3 -50 -7 -31 -7 -38 -13 -38 -32 0 -26 -18 -42 -25 -22 -3 7 -6 34 -8
59 -2 35 1 45 10 42 7 -3 13 2 13 11 0 9 5 16 10 16 6 0 10 12 10 26 0 14 13
43 28 63 16 20 32 44 35 54 4 10 11 15 17 12 6 -3 10 4 10 17 0 26 17 77 43
127 9 19 17 47 17 62 0 19 6 30 20 34 11 3 20 11 20 16 0 6 -4 7 -10 4 -5 -3
-10 1 -10 10 0 9 4 14 9 10 6 -3 14 3 20 12 8 15 13 16 30 6 11 -7 26 -10 33
-8 9 4 14 -3 15 -17 4 -42 35 -97 57 -100 13 -2 19 -9 17 -18 -4 -16 -5 -95
-1 -95 2 0 4 -19 5 -43 2 -28 10 -48 22 -57 16 -12 19 -11 30 13 8 19 8 29 0
34 -18 11 -18 46 1 64 12 13 13 19 4 22 -6 2 -12 12 -12 23 0 22 27 15 34 -9
2 -10 4 3 3 27 -2 45 -21 67 -30 34 -3 -12 -5 -8 -6 10 -1 20 4 27 18 27 11 0
22 -6 25 -12 3 -7 3 1 0 17 -5 27 -4 28 7 10 8 -12 12 -50 12 -92 -1 -40 2
-72 5 -72 23 4 32 -4 32 -26 0 -14 -4 -25 -10 -25 -5 0 -10 -4 -10 -10 0 -5 4
-10 9 -10 20 0 31 71 31 209 l0 147 -52 39 c-65 48 -177 171 -228 248 -42 66
-86 100 -151 117 -75 20 -121 50 -211 135 -130 124 -203 151 -378 139 -112 -8
-152 1 -306 69 -111 50 -145 58 -327 83 -100 14 -130 21 -137 35 -10 18 -3 76
10 84 19 12 59 116 64 170 3 33 9 80 12 104 5 34 4 42 -6 36 -10 -6 -12 -2 -7
16 4 13 7 31 7 39 0 11 2 12 8 3 4 -7 9 58 9 145 2 175 14 228 78 355 19 37
33 67 31 67 -7 0 -56 -80 -56 -92 -1 -7 -12 -26 -26 -43 -20 -23 -24 -25 -21
-10 3 11 9 40 12 65 4 25 20 65 36 90 16 24 34 61 40 81 14 44 4 105 -17 117
-8 4 -17 25 -21 45 -5 31 -1 42 17 62 14 15 35 25 52 25 28 0 28 -1 27 -57 0
-61 -21 -224 -33 -258 -3 -11 6 5 20 35 19 39 29 82 36 150 11 119 13 126 33
110 13 -11 15 -4 15 52 0 36 -3 68 -6 71 -9 9 -40 -8 -106 -59 -31 -24 -61
-44 -67 -44 -17 0 -13 52 5 78 11 16 13 27 5 35 -7 9 -7 33 -1 72 5 33 18 116
29 185 23 150 29 210 36 355 3 61 13 140 23 177 15 63 15 72 0 128 -15 58 -15
61 4 85 12 16 20 42 21 73 1 26 4 49 8 52 22 17 18 50 -8 82 -34 39 -53 80
-53 112 0 12 -12 45 -26 74 -22 45 -33 55 -92 83 -49 24 -84 33 -131 35 -42 2
-71 9 -80 19 -14 14 -14 16 5 21 46 12 56 84 22 145 -25 44 -48 54 -114 46
-41 -4 -44 -3 -44 19 0 30 -59 97 -106 119 -46 21 -83 8 -136 -49 -35 -38 -37
-39 -60 -24 -13 9 -24 24 -25 34 -1 11 -6 31 -12 47 l-11 27 -133 0 -134 0
-44 -35z m761 -165 c0 -5 -7 -7 -15 -4 -8 4 -15 8 -15 10 0 2 7 4 15 4 8 0 15
-4 15 -10z m-1420 -67 c0 -16 -25 -73 -31 -73 -17 0 -19 21 -4 50 14 27 35 41
35 23z m1759 -304 c7 -22 7 -29 -3 -29 -21 0 -36 23 -36 53 0 24 2 27 14 18 8
-7 19 -25 25 -42z m-759 -296 c0 -10 -10 -29 -21 -43 -15 -18 -19 -20 -15 -7
3 11 9 30 12 43 7 28 24 32 24 7z m26 -49 c-28 -41 -37 -26 -13 22 18 38 23
43 25 25 2 -12 -4 -33 -12 -47z m-1340 11 c27 -55 16 -60 -14 -6 -24 42 -26
51 -14 51 4 0 17 -21 28 -45z m833 -1777 c-19 -16 -49 -24 -49 -14 0 2 -3 12
-6 21 -5 13 0 15 35 13 42 -3 42 -3 20 -20z m111 -19 c0 -6 -4 -7 -10 -4 -5 3
-10 11 -10 16 0 6 5 7 10 4 6 -3 10 -11 10 -16z m27 -61 c-3 -8 -6 -5 -6 6 -1
11 2 17 5 13 3 -3 4 -12 1 -19z m59 -153 c4 -9 -8 -31 -29 -54 -20 -22 -39
-56 -43 -75 -8 -48 -51 -52 -46 -5 1 4 -4 6 -11 6 -34 -1 -46 4 -41 17 4 9 16
13 34 11 22 -3 32 2 45 21 15 23 15 25 -8 33 -26 10 -42 37 -27 46 5 3 20 3
34 -1 13 -3 33 -1 43 5 26 15 43 13 49 -4z m15 -118 c-13 -13 -15 1 -4 30 7
17 8 17 11 -1 2 -10 -1 -23 -7 -29z m-311 14 c0 -11 -51 -33 -59 -26 -8 8 41
45 51 39 4 -3 8 -9 8 -13z m87 2 c4 -12 -54 -29 -64 -19 -3 3 -3 12 1 21 6 18
57 16 63 -2z m323 -3 c0 -5 -7 -7 -15 -4 -8 4 -15 8 -15 10 0 2 7 4 15 4 8 0
15 -4 15 -10z m-227 -140 c62 -23 105 -22 159 6 47 24 96 27 142 8 41 -17 43
-20 36 -50 -9 -38 -18 -54 -31 -54 -5 0 -6 12 -3 26 5 19 4 25 -5 20 -6 -4
-11 -12 -11 -17 0 -29 -91 -117 -128 -124 -10 -2 -17 -5 -17 -6 0 -1 -36 -3
-80 -5 -97 -3 -93 -2 -75 -14 12 -8 11 -10 -8 -10 -12 0 -25 7 -29 16 -3 8
-12 13 -20 10 -8 -3 -11 -2 -8 3 3 5 1 12 -5 16 -5 3 -10 -1 -10 -9 0 -8 8
-20 18 -26 14 -9 11 -10 -15 -6 -17 2 -36 7 -42 11 -7 4 -8 0 -5 -10 5 -12 -9
-7 -47 16 -30 18 -61 38 -70 46 -13 11 -17 10 -29 -12 -7 -13 -16 -22 -21 -20
-4 3 -11 -5 -16 -18 -8 -23 -10 -23 -40 -10 -42 17 -42 41 -4 182 l7 24 25
-25 c13 -14 29 -32 34 -41 6 -8 22 -18 38 -21 37 -9 37 19 -2 38 -39 20 -46
43 -18 58 61 33 188 32 280 -2z m491 -62 c-5 -7 -2 -9 8 -6 12 5 15 -1 13 -30
-1 -29 -6 -37 -20 -37 -12 0 -22 9 -25 25 -7 27 4 60 21 60 6 0 7 -5 3 -12z
m603 -234 c-3 -3 -12 -4 -19 -1 -8 3 -5 6 6 6 11 1 17 -2 13 -5z m163 -24 c62
-13 120 -33 170 -59 109 -57 179 -75 266 -68 65 5 193 -5 234 -18 9 -3 17 -12
17 -20 0 -11 -7 -13 -26 -8 -22 5 -23 4 -10 -9 8 -9 17 -14 20 -12 8 5 18 -18
29 -63 6 -26 5 -33 -7 -33 -8 0 -12 -4 -8 -9 3 -5 1 -12 -5 -16 -5 -3 -10 3
-10 14 0 12 6 21 13 22 10 0 10 2 0 6 -7 2 -13 10 -13 17 0 16 -36 49 -75 69
-33 16 -114 35 -210 47 -33 5 -75 11 -92 15 -47 11 -41 -3 12 -26 25 -11 45
-22 45 -24 0 -13 -97 18 -110 34 -8 11 -119 61 -203 92 -43 16 -88 34 -100 41
-12 6 -35 15 -52 19 -70 17 23 8 115 -11z m-2000 -60 c0 -5 -9 -14 -20 -20
-14 -7 -20 -7 -20 0 0 5 -12 11 -27 11 l-28 1 30 8 c44 11 65 11 65 0z m-135
-23 c-33 -23 -87 -47 -104 -47 -22 0 18 27 66 45 49 18 62 18 38 2z m165 -32
c8 -6 21 -20 28 -33 11 -19 10 -27 -3 -50 -15 -24 -15 -30 -1 -56 10 -20 12
-34 5 -42 -10 -12 -45 -8 -66 8 -7 6 -14 4 -20 -5 -11 -19 -99 -77 -116 -77
-33 0 -46 43 -14 46 26 3 57 17 57 26 0 5 6 8 13 5 15 -5 36 21 37 46 0 9 5
17 10 17 12 0 14 33 3 44 -11 11 -10 70 1 78 13 9 47 5 66 -7z m-335 -37 c-40
-21 -169 -127 -193 -160 -7 -10 -21 -18 -30 -17 -14 0 -13 2 3 9 17 7 17 9 3
9 -10 1 -38 -14 -64 -31 l-46 -33 5 -56 c3 -30 15 -75 27 -99 12 -24 26 -75
32 -114 5 -39 16 -93 24 -119 9 -26 17 -58 18 -70 5 -39 17 -111 23 -132 11
-40 -14 0 -27 45 -15 47 -65 110 -88 110 -9 0 -11 7 -7 21 6 18 5 19 -14 10
-17 -10 -24 -6 -45 22 -15 19 -26 40 -26 48 0 8 -11 27 -26 42 -14 15 -22 31
-19 37 3 5 -3 7 -15 5 -11 -2 -23 1 -26 7 -4 7 -2 8 5 4 17 -11 6 42 -14 64
-8 9 -15 24 -15 33 0 21 -17 31 -24 15 -4 -7 -4 -3 -2 10 2 12 0 20 -5 16 -5
-3 -9 -14 -9 -25 0 -13 -7 -19 -22 -20 -17 -1 -19 -2 -5 -6 9 -2 17 -12 17
-21 0 -11 3 -13 8 -6 4 6 16 8 26 4 17 -6 18 -7 3 -13 -11 -4 -15 -13 -11 -24
5 -14 4 -15 -4 -4 -6 8 -17 11 -26 8 -9 -4 -27 -2 -41 3 -34 13 -55 3 -55 -26
0 -13 -5 -24 -11 -24 -6 0 -8 8 -4 19 8 27 -4 51 -27 51 -12 0 -27 8 -34 18
-12 16 -13 15 -9 -6 2 -14 -1 -22 -8 -21 -19 3 -69 -12 -104 -32 -58 -32 -36
-13 50 45 79 53 94 59 246 94 47 11 66 8 55 -10 -4 -7 -2 -8 5 -4 8 6 9 12 2
20 -8 9 -4 19 14 34 14 12 25 25 25 30 0 13 52 38 103 51 63 15 124 44 161 76
16 14 33 25 38 25 5 0 7 4 4 9 -8 12 19 33 29 23 5 -4 5 -2 1 5 -8 15 5 23 84
49 83 28 95 28 45 2z m193 -6 c2 -7 -3 -12 -12 -12 -9 0 -16 7 -16 16 0 17 22
14 28 -4z m-158 -13 c-7 -11 -14 -18 -17 -15 -3 3 0 12 7 21 18 21 23 19 10
-6z m2694 -20 c17 -15 -3 -23 -29 -11 -32 15 -34 36 -2 27 12 -4 26 -11 31
-16z m336 -4 c0 5 6 0 14 -10 15 -20 10 -49 -6 -39 -5 3 -7 13 -4 21 4 8 2 11
-5 7 -13 -7 -29 13 -29 36 1 11 4 10 15 -4 8 -11 15 -16 15 -11z m-2841 -29
c-7 -6 -19 -18 -26 -26 -11 -13 -12 -11 -13 12 0 17 6 28 18 31 25 5 36 -3 21
-17z m2656 -11 c43 -47 38 -94 -8 -65 -12 7 -31 18 -42 24 -11 6 -20 18 -20
26 0 8 -3 18 -8 21 -5 4 -7 11 -3 17 7 12 64 -4 81 -23z m-2470 5 c3 -6 -1 -7
-9 -4 -18 7 -21 14 -7 14 6 0 13 -4 16 -10z m-428 -102 c-3 -7 -5 -2 -5 12 0
14 2 19 5 13 2 -7 2 -19 0 -25z m-217 -17 c0 -6 -4 -12 -9 -15 -4 -3 -11 -29
-15 -58 -10 -74 -18 -80 -31 -23 -12 55 -10 75 10 75 7 0 15 7 19 15 6 16 26
21 26 6z m197 -56 c-2 -31 -4 -33 -14 -18 -14 19 -17 36 -6 46 15 16 23 5 20
-28z m3009 20 c5 -11 11 -12 24 -5 21 11 53 3 44 -11 -3 -5 -10 -6 -16 -3 -7
5 -8 2 -4 -5 5 -8 -4 -22 -23 -38 -17 -14 -31 -32 -31 -40 0 -34 -203 -273
-232 -273 -7 0 -7 5 1 13 6 8 8 17 4 20 -3 4 -1 7 6 7 17 0 39 23 43 46 2 13
-2 19 -14 18 -10 -1 -18 2 -18 7 0 5 6 9 13 9 15 0 84 102 123 181 41 83 68
107 80 74z m-2978 -45 c0 -36 -4 -50 -14 -50 -15 0 -15 48 0 83 12 27 15 21
14 -33z m-231 -47 c-3 -10 -5 -4 -5 12 0 17 2 24 5 18 2 -7 2 -21 0 -30z m220
-58 c-14 -12 -45 -21 -54 -18 -18 7 -16 33 2 33 15 0 19 10 15 45 -1 12 7 4
19 -19 11 -22 20 -40 18 -41z m3453 5 c0 -5 -2 -10 -4 -10 -3 0 -8 5 -11 10
-3 6 -1 10 4 10 6 0 11 -4 11 -10z m-3673 -62 c-3 -7 -5 -2 -5 12 0 14 2 19 5
13 2 -7 2 -19 0 -25z m3733 -8 c0 -5 -5 -10 -11 -10 -5 0 -7 5 -4 10 3 6 8 10
11 10 2 0 4 -4 4 -10z m-1730 -150 c0 -5 -4 -10 -10 -10 -5 0 -10 5 -10 10 0
6 5 10 10 10 6 0 10 -4 10 -10z m1852 -80 c3 -19 1 -29 -6 -27 -14 4 -21 57
-8 57 5 0 12 -14 14 -30z m-4372 10 c0 -5 -4 -10 -10 -10 -5 0 -10 5 -10 10 0
6 5 10 10 10 6 0 10 -4 10 -10z m4465 -49 c3 -5 1 -12 -5 -16 -5 -3 -10 1 -10
9 0 18 6 21 15 7z m-4642 -15 c6 -16 -29 -53 -40 -43 -8 9 14 57 26 57 5 0 11
-6 14 -14z m297 -26 c0 -5 -4 -10 -10 -10 -5 0 -10 5 -10 10 0 6 5 10 10 10 6
0 10 -4 10 -10z m30 0 c0 -5 -4 -10 -10 -10 -5 0 -10 5 -10 10 0 6 5 10 10 10
6 0 10 -4 10 -10z m3857 -46 c-9 -9 -28 6 -21 18 4 6 10 6 17 -1 6 -6 8 -13 4
-17z m-344 1 c11 -8 17 -23 15 -37 -2 -19 -9 -23 -38 -23 -28 0 -36 4 -38 21
-3 20 21 54 36 54 4 0 15 -7 25 -15z m-3710 -14 c2 -11 0 -24 -6 -30 -8 -8 -8
-11 1 -11 7 0 12 -5 12 -11 0 -5 -4 -7 -10 -4 -5 3 -10 -1 -10 -9 0 -24 -24
-19 -36 8 -9 19 -8 25 8 35 10 6 18 18 18 26 0 22 17 18 23 -4z m-303 -41 c-6
-11 -15 -20 -19 -20 -5 0 -7 9 -4 20 3 11 12 20 20 20 11 0 11 -4 3 -20z m920
0 c0 -5 -2 -10 -4 -10 -3 0 -8 5 -11 10 -3 6 -1 10 4 10 6 0 11 -4 11 -10z
m-673 -31 c4 -15 12 -19 32 -17 21 2 27 -2 29 -22 2 -14 8 -29 13 -34 12 -13
12 -39 0 -32 -5 4 -12 0 -14 -6 -4 -8 -8 -4 -13 10 -4 14 -12 21 -20 18 -13
-5 -15 0 -18 37 -1 6 -9 15 -18 19 -19 8 -25 48 -7 48 6 0 13 -9 16 -21z m477
-1 c9 -12 16 -30 16 -40 0 -10 5 -18 11 -18 6 0 9 -7 5 -15 -3 -8 -1 -15 4
-15 15 0 41 -63 30 -74 -5 -5 -10 -21 -10 -34 0 -17 -5 -23 -17 -20 -12 2 -23
27 -37 83 -11 44 -25 83 -30 86 -5 4 -6 14 -3 23 3 8 2 18 -4 21 -10 7 -3 25
11 25 5 0 16 -10 24 -22z m-764 -13 c-7 -9 -15 -13 -19 -10 -3 3 1 10 9 15 21
14 24 12 10 -5z m687 -7 c-3 -8 -6 -5 -6 6 -1 11 2 17 5 13 3 -3 4 -12 1 -19z
m2893 -2 c0 -3 -4 -8 -10 -11 -5 -3 -10 -1 -10 4 0 6 5 11 10 11 6 0 10 -2 10
-4z m-2966 -98 c6 -13 22 -24 34 -26 75 -11 77 -182 2 -182 -32 0 -68 31 -75
65 -9 46 -11 125 -4 125 5 0 9 8 9 18 0 20 10 35 18 27 3 -2 10 -15 16 -27z
m4056 11 c0 -5 -4 -9 -10 -9 -5 0 -10 7 -10 16 0 8 5 12 10 9 6 -3 10 -10 10
-16z m-3757 -83 c41 -65 34 -89 -11 -41 -13 13 -21 29 -17 35 3 5 1 19 -5 30
-20 38 5 20 33 -24z m3697 -36 c0 -5 -5 -10 -11 -10 -5 0 -7 5 -4 10 3 6 8 10
11 10 2 0 4 -4 4 -10z m-3758 -13 c20 17 20 17 17 -1 -2 -10 -14 -25 -26 -33
-20 -14 -23 -14 -29 1 -3 9 -3 24 1 34 8 16 8 16 12 -1 5 -18 5 -18 25 0z
m-464 -48 c4 -40 -12 -30 -22 14 -5 21 -3 28 6 25 7 -3 14 -20 16 -39z m487
-36 c3 -21 10 -54 15 -74 12 -44 13 -60 3 -57 -5 0 -16 -2 -27 -7 -23 -10 -40
13 -24 33 6 7 10 41 9 78 -3 70 14 89 24 27z m-445 -32 c0 -6 -4 -13 -10 -16
-5 -3 -10 1 -10 9 0 9 5 16 10 16 6 0 10 -4 10 -9z"/>
<path d="M2080 1693 c0 -13 39 -53 50 -53 14 0 13 2 -20 33 -16 16 -30 25 -30
20z"/>
<path d="M1515 1369 c-4 -6 -5 -13 -2 -16 7 -7 27 6 27 18 0 12 -17 12 -25 -2z"/>
<path d="M787 1135 c-10 -14 -13 -25 -7 -25 6 0 8 -4 5 -10 -3 -5 -2 -10 4
-10 12 0 41 57 33 64 -9 10 -16 6 -35 -19z"/>
<path d="M717 1093 c-12 -11 -8 -33 6 -33 7 0 13 9 13 20 0 20 -7 25 -19 13z"/>
<path d="M710 1000 c0 -5 5 -10 10 -10 6 0 10 5 10 10 0 6 -4 10 -10 10 -5 0
-10 -4 -10 -10z"/>
<path d="M825 820 c3 -5 8 -10 11 -10 2 0 4 5 4 10 0 6 -5 10 -11 10 -5 0 -7
-4 -4 -10z"/>
<path d="M855 780 c3 -5 8 -10 11 -10 2 0 4 5 4 10 0 6 -5 10 -11 10 -5 0 -7
-4 -4 -10z"/>
<path d="M370 439 c0 -5 5 -7 10 -4 6 3 10 8 10 11 0 2 -4 4 -10 4 -5 0 -10
-5 -10 -11z"/>
<path d="M2056 3504 c-4 -15 -16 -21 -44 -22 -20 -1 -74 -5 -118 -8 -67 -5
-86 -3 -108 11 -17 11 -38 16 -58 12 -18 -2 -44 0 -58 5 -13 5 -35 6 -48 3
-42 -10 -142 -115 -173 -180 -27 -57 -39 -135 -21 -135 5 0 14 -19 21 -42 8
-24 29 -57 53 -80 21 -21 37 -42 33 -48 -3 -6 2 -13 12 -17 22 -8 43 -28 43
-40 0 -14 51 -59 90 -78 49 -25 168 -16 241 19 65 31 117 71 106 82 -4 5 -52
8 -105 7 l-97 -2 50 14 c28 8 83 15 123 15 39 0 72 2 72 5 0 4 -7 19 -15 35
-14 27 -14 28 9 26 12 -2 28 -6 34 -10 8 -5 12 0 12 13 0 25 17 27 48 5 21
-15 22 -14 22 19 0 19 -5 49 -11 67 -8 21 -8 34 -2 39 14 9 39 60 47 96 7 34
-14 117 -29 117 -5 -1 -17 11 -25 26 l-14 27 -7 -30 -7 -30 -1 30 c-2 28 -3
29 -11 8 -5 -13 -12 -23 -14 -23 -3 0 -14 19 -25 42 -15 35 -20 38 -25 22z
m-288 -211 c4 -14 -24 -18 -95 -14 -41 2 -93 -17 -122 -47 -11 -11 -16 -12
-19 -2 -7 21 35 53 90 70 57 17 139 13 146 -7z m68 -59 c26 -5 54 -22 88 -55
l50 -48 -40 9 c-65 15 -158 11 -226 -10 -90 -28 -98 -27 -98 14 0 42 43 82 98
91 20 4 44 8 52 9 8 2 20 2 27 0 6 -1 29 -6 49 -10z m4 -124 c0 -5 -7 -10 -15
-10 -8 0 -15 5 -15 10 0 6 7 10 15 10 8 0 15 -4 15 -10z m146 -34 c21 -16 14
-29 -25 -41 -20 -6 -23 -4 -18 10 4 9 7 23 7 31 0 18 11 18 36 0z m-227 -60
c11 -14 11 -16 -1 -16 -29 0 -78 22 -78 35 0 8 10 21 23 30 21 15 23 14 32 -8
6 -13 16 -31 24 -41z"/>
<path d="M2906 3493 c-2 -2 -35 -11 -72 -19 -82 -17 -186 -18 -201 -3 -16 16
-58 4 -83 -23 -11 -12 -20 -17 -20 -11 0 12 -18 12 -37 0 -9 -6 -13 -1 -14 15
0 15 -3 18 -6 8 -3 -8 -9 -17 -13 -20 -4 -3 -12 -14 -18 -25 -10 -17 -11 -15
-6 15 5 32 3 30 -22 -20 -24 -51 -26 -60 -18 -130 4 -41 8 -109 9 -150 1 -144
5 -181 16 -175 6 4 17 -1 24 -11 13 -18 14 -16 15 16 l2 35 13 -31 c12 -28 45
-65 45 -50 0 3 -7 24 -16 46 -23 57 -13 84 49 124 28 18 86 61 127 95 65 52
81 61 117 61 44 0 122 -34 159 -69 12 -11 25 -17 29 -13 4 4 4 -4 0 -18 -9
-29 -25 -42 -43 -35 -8 3 -46 10 -85 16 -80 13 -160 6 -215 -17 -37 -15 -112
-80 -112 -97 0 -5 17 -7 38 -6 52 4 179 -11 221 -26 l36 -14 -42 2 c-24 1 -43
7 -43 12 0 6 -4 4 -9 -4 -8 -12 -57 -21 -128 -23 -57 -1 4 -36 132 -75 155
-47 298 -27 320 45 6 20 16 32 27 32 11 0 26 19 43 53 14 28 34 59 44 67 96
82 36 264 -123 374 -50 34 -127 61 -140 49z m185 -271 c-14 -5 -51 17 -51 29
0 6 14 2 30 -8 17 -10 26 -19 21 -21z m-387 -210 c9 -15 2 -15 -46 -1 -47 12
-49 33 -5 59 l32 20 6 -33 c3 -18 9 -38 13 -45z m103 62 c-3 -3 -12 -4 -19 -1
-8 3 -5 6 6 6 11 1 17 -2 13 -5z m121 -57 c3 -21 -2 -28 -23 -33 -34 -8 -42 1
-22 24 10 10 17 24 17 31 0 24 25 4 28 -22z"/>
<path d="M2486 2648 c10 -32 41 -72 76 -98 l30 -22 -13 24 c-20 38 -83 118
-92 118 -5 0 -5 -10 -1 -22z"/>
<path d="M4740 626 c0 -8 5 -18 10 -21 6 -3 10 1 10 9 0 8 -4 18 -10 21 -5 3
-10 -1 -10 -9z"/>
<path d="M4940 430 c0 -5 5 -10 11 -10 5 0 7 5 4 10 -3 6 -8 10 -11 10 -2 0
-4 -4 -4 -10z"/>
<path d="M4834 20 c-5 -5 -22 -10 -39 -13 -22 -3 -17 -4 17 -6 26 0 49 3 52 8
8 12 -19 22 -30 11z"/>
<path d="M4625 10 c-3 -5 -1 -10 4 -10 6 0 11 5 11 10 0 6 -2 10 -4 10 -3 0
-8 -4 -11 -10z"/>
</g>
</svg>
